<?xml version="1.0" encoding="UTF-8"?>
<svg width="108" height="108" viewBox="0 0 108 108" xmlns="http://www.w3.org/2000/svg">
  <g fill="#000000">
    <circle cx="54" cy="54" r="26" fill="none" stroke="#000000" stroke-width="6" />
    <path d="M56 40h-4v4h4c2.2 0 4 1.8 4 4s-1.8 4-4 4h-4c-2.2 0-4 1.8-4 4s1.8 4 4 4h4v4h-4c-4.4 0-8-3.6-8-8s3.6-8 8-8h4c4.4 0 8-3.6 8-8s-3.6-8-8-8h-4v4h4c2.2 0 4 1.8 4 4s-1.8 4-4 4z"/>
    <path d="M74 54c0 2.2-0.4 4.3-1.2 6.3-0.3 0.8-1.2 1.1-1.9 0.7-0.8-0.4-1.1-1.3-0.8-2.1C71.6 57.1 72 55.6 72 54c0-1.6-0.4-3.1-1-4.5-0.3-0.8 0.1-1.7 0.8-2.1 0.8-0.4 1.7-0.1 2 0.7 0.8 2 1.2 4.1 1.2 6.3z"/>
  </g>
</svg>
