<svg width="459" height="173" viewBox="0 0 459 173" fill="none" xmlns="http://www.w3.org/2000/svg">
<g clip-path="url(#clip0_17761_12061)">
<path d="M173.41 70.3898L211.37 14.0098H231.33V70.1098H240.26V85.8798H231.33V101.93H212.63V85.8798H173.42V70.3898H173.41ZM212.62 70.1098V37.5898L191.41 70.1098H212.62Z" fill="white"/>
<path d="M249.05 36.4797H268.31C268.5 37.6897 268.64 38.8797 268.73 40.0397C268.82 41.2097 268.92 42.3897 269.01 43.5997C271.15 40.8997 273.89 38.8297 277.24 37.3897C280.59 35.9497 284.08 35.2297 287.71 35.2297C292.46 35.2297 296.64 36.1597 300.27 38.0197C303.9 39.8797 306.92 42.3697 309.34 45.4897C311.76 48.6097 313.57 52.1897 314.78 56.2397C315.99 60.2897 316.59 64.4498 316.59 68.7298C316.59 74.7798 315.56 80.0297 313.52 84.4997C311.47 88.9697 308.82 92.6397 305.57 95.5297C302.31 98.4097 298.64 100.55 294.54 101.95C290.45 103.35 286.4 104.04 282.4 104.04C279.24 104.04 276.63 103.76 274.59 103.2C272.54 102.64 270.68 102.08 269.01 101.53V129.86H249.05V36.4997V36.4797ZM269 84.6197C271.6 86.3897 275.46 87.2697 280.58 87.2697C285.7 87.2697 289.39 85.6197 292.23 82.3197C295.07 79.0197 296.49 74.6197 296.49 69.1297C296.49 66.9897 296.23 64.8997 295.72 62.8497C295.21 60.7997 294.42 59.0098 293.35 57.4798C292.28 55.9398 290.88 54.7097 289.16 53.7797C287.44 52.8497 285.32 52.3797 282.81 52.3797C280.58 52.3797 278.6 52.7998 276.88 53.6398C275.16 54.4798 273.72 55.5897 272.55 56.9897C271.38 58.3897 270.5 59.9697 269.9 61.7397C269.29 63.5097 268.99 65.3197 268.99 67.1797V84.6197H269Z" fill="white"/>
<path d="M362.64 95.7897C360.41 98.3997 357.59 100.4 354.2 101.79C350.8 103.19 347.01 103.88 342.83 103.88C340.5 103.88 338.06 103.55 335.5 102.9C332.94 102.25 330.57 101.16 328.38 99.6197C326.19 98.0797 324.38 96.0197 322.94 93.4097C321.5 90.8097 320.78 87.5497 320.78 83.6397C320.78 79.7297 321.55 76.4297 323.08 73.4497C324.62 70.4697 326.73 67.9897 329.43 65.9797C332.13 63.9797 335.31 62.4697 338.99 61.4397C342.66 60.4197 346.64 59.8997 350.92 59.8997C353.24 59.8997 355.59 59.9497 357.97 60.0397C360.34 60.1297 361.9 60.2697 362.64 60.4597V59.0597C362.64 57.3897 362.29 55.9697 361.59 54.7997C360.89 53.6397 359.96 52.6597 358.8 51.8697C357.64 51.0797 356.31 50.5197 354.82 50.1997C353.33 49.8797 351.75 49.7097 350.08 49.7097C345.61 49.7097 341.92 50.2697 338.99 51.3797C336.06 52.4897 333.57 53.7497 331.52 55.1497L323.29 42.8697C324.69 41.8497 326.27 40.8297 328.03 39.7997C329.8 38.7797 331.89 37.8497 334.31 37.0097C336.73 36.1697 339.45 35.4997 342.47 34.9897C345.49 34.4797 348.96 34.2197 352.87 34.2197C362.82 34.2197 370.17 36.8997 374.92 42.2397C379.67 47.5897 382.04 54.7797 382.04 63.7997V101.9H363.2L362.64 95.7597V95.7897ZM362.64 73.0397C362.17 72.9497 361.29 72.8297 359.99 72.6897C358.69 72.5497 357.2 72.4797 355.52 72.4797C349.94 72.4797 345.98 73.2697 343.66 74.8497C341.33 76.4297 340.17 78.6697 340.17 81.5497C340.17 86.9497 343.42 89.6397 349.94 89.6397C351.52 89.6397 353.08 89.3797 354.61 88.8697C356.15 88.3597 357.49 87.6397 358.66 86.7097C359.82 85.7797 360.78 84.6197 361.52 83.2197C362.26 81.8197 362.64 80.1997 362.64 78.3397V73.0397Z" fill="white"/>
<path d="M393.62 112.26C394.74 113.1 395.97 113.84 397.32 114.49C398.67 115.14 400.13 115.47 401.72 115.47C403.86 115.47 405.65 114.79 407.09 113.45C408.53 112.1 409.9 109.8 411.21 106.54L413.16 101.24L383.3 36.4897H406.19L422.52 77.7997L437.31 36.4897H458.66L431.87 101.52C430.38 105.15 428.92 108.75 427.47 112.34C426.03 115.92 424.26 119.13 422.17 121.97C420.08 124.81 417.52 127.11 414.5 128.88C411.48 130.65 407.68 131.53 403.13 131.53C399.59 131.53 396.38 131.06 393.5 130.13C390.62 129.2 387.96 127.85 385.55 126.08L393.64 112.26H393.62Z" fill="white"/>
<path d="M263.8 146.84C265.09 147.59 266.09 148.67 266.82 150.09C267.55 151.51 267.91 153.18 267.91 155.1C267.91 157.02 267.55 158.66 266.82 160.08C266.09 161.5 265.08 162.59 263.79 163.35C262.5 164.11 261.02 164.49 259.37 164.49C257.49 164.49 255.91 164.01 254.61 163.05C253.31 162.09 252.42 160.82 251.93 159.23V164.26H249.58V139.45H251.93V150.98C252.42 149.39 253.32 148.12 254.61 147.16C255.91 146.2 257.49 145.72 259.37 145.72C261.05 145.72 262.53 146.1 263.81 146.84H263.8ZM255.22 148.7C254.18 149.3 253.37 150.16 252.79 151.26C252.21 152.37 251.92 153.65 251.92 155.1C251.92 156.55 252.21 157.83 252.79 158.94C253.37 160.05 254.18 160.9 255.22 161.5C256.26 162.1 257.43 162.41 258.72 162.41C260.8 162.41 262.45 161.76 263.68 160.45C264.91 159.14 265.52 157.36 265.52 155.1C265.52 152.84 264.9 151.06 263.68 149.75C262.46 148.44 260.8 147.79 258.72 147.79C257.42 147.79 256.26 148.09 255.22 148.7Z" fill="white"/>
<path d="M272.63 145.95L279 161.2L284.87 145.95H287.49L276.73 172.91H274.05L277.74 164.06L270.03 145.96H272.65L272.63 145.95Z" fill="white"/>
<path d="M314.14 161.12C313.54 162.14 312.64 162.95 311.46 163.57C310.28 164.19 308.83 164.49 307.13 164.49C305.43 164.49 303.96 164.21 302.64 163.64C301.32 163.07 300.26 162.25 299.47 161.18C298.68 160.11 298.22 158.85 298.11 157.43H303.14C303.25 158.39 303.64 159.19 304.3 159.83C304.96 160.47 305.84 160.79 306.93 160.79C307.91 160.79 308.67 160.53 309.19 160C309.71 159.47 309.98 158.8 309.98 157.97C309.98 157.23 309.77 156.62 309.34 156.14C308.91 155.66 308.38 155.27 307.73 154.98C307.08 154.69 306.19 154.36 305.05 153.97C303.57 153.48 302.37 152.99 301.43 152.51C300.49 152.03 299.69 151.33 299.03 150.41C298.37 149.49 298.04 148.3 298.04 146.82C298.04 144.79 298.77 143.18 300.24 142.01C301.7 140.84 303.64 140.25 306.06 140.25C308.48 140.25 310.56 140.85 312.04 142.06C313.52 143.27 314.37 144.88 314.57 146.89H309.47C309.34 146.04 308.98 145.34 308.4 144.79C307.82 144.24 307.03 143.97 306.02 143.97C305.15 143.97 304.44 144.2 303.91 144.66C303.37 145.12 303.11 145.78 303.11 146.65C303.11 147.34 303.32 147.92 303.73 148.38C304.14 148.84 304.67 149.21 305.31 149.5C305.95 149.79 306.81 150.11 307.91 150.47C309.43 151.01 310.66 151.51 311.62 151.98C312.57 152.45 313.38 153.15 314.05 154.09C314.72 155.03 315.06 156.26 315.06 157.78C315.06 158.99 314.76 160.1 314.15 161.12H314.14Z" fill="white"/>
<path d="M323.26 144.34V150.47H331.64V154.09H323.26V160.46H332.65V164.25H318.54V140.58H332.65V144.33H323.26V144.34Z" fill="white"/>
<path d="M340.86 140.59V164.26H336.13V140.59H340.86Z" fill="white"/>
<path d="M364.49 158.59C363.51 160.38 362.08 161.77 360.22 162.76C358.35 163.76 356.14 164.25 353.56 164.25H345.14V140.58H353.56C356.13 140.58 358.35 141.07 360.22 142.04C362.09 143.01 363.51 144.39 364.49 146.16C365.47 147.94 365.96 150.01 365.96 152.38C365.96 154.75 365.47 156.79 364.49 158.58V158.59ZM359.08 158.02C360.48 156.68 361.17 154.8 361.17 152.39C361.17 149.98 360.47 148.06 359.08 146.72C357.68 145.38 355.71 144.71 353.16 144.71H349.87V160.03H353.16C355.71 160.03 357.68 159.36 359.08 158.02Z" fill="white"/>
<path d="M386.64 141.8C388.44 142.83 389.86 144.26 390.9 146.11C391.94 147.96 392.46 150.04 392.46 152.36C392.46 154.68 391.94 156.77 390.9 158.63C389.86 160.49 388.44 161.93 386.64 162.96C384.84 163.99 382.83 164.5 380.62 164.5C378.41 164.5 376.4 163.99 374.6 162.96C372.8 161.93 371.38 160.49 370.34 158.63C369.3 156.78 368.78 154.69 368.78 152.36C368.78 150.03 369.3 147.95 370.34 146.11C371.38 144.27 372.8 142.83 374.6 141.8C376.4 140.77 378.41 140.26 380.62 140.26C382.83 140.26 384.84 140.77 386.64 141.8ZM376.96 145.55C375.91 146.18 375.09 147.08 374.5 148.25C373.91 149.42 373.61 150.79 373.61 152.36C373.61 153.93 373.91 155.29 374.5 156.47C375.09 157.64 375.91 158.54 376.96 159.17C378.01 159.8 379.23 160.11 380.61 160.11C381.99 160.11 383.21 159.8 384.26 159.17C385.31 158.54 386.13 157.64 386.72 156.47C387.31 155.3 387.61 153.93 387.61 152.36C387.61 150.79 387.31 149.43 386.72 148.25C386.13 147.08 385.31 146.18 384.26 145.55C383.21 144.93 381.99 144.61 380.61 144.61C379.23 144.61 378.01 144.92 376.96 145.55Z" fill="white"/>
<path d="M408.34 164.26L402.81 155.04H400.73V164.26H396V140.59H405.02C407.77 140.59 409.86 141.26 411.31 142.6C412.75 143.94 413.47 145.71 413.47 147.9C413.47 149.69 412.97 151.19 411.98 152.39C410.98 153.6 409.55 154.4 407.67 154.8L413.57 164.25H408.34V164.26ZM400.73 151.79H404.62C407.32 151.79 408.68 150.59 408.68 148.2C408.68 147.06 408.35 146.17 407.69 145.53C407.03 144.89 406.01 144.57 404.62 144.57H400.73V151.78V151.79Z" fill="white"/>
<path d="M74.5399 48.5999C75.1999 44.6099 73.0499 38.5499 79.7599 38.3799C86.2399 38.2199 84.5899 44.1199 85.1799 48.4699C87.7099 48.4699 90.0699 48.3799 92.4199 48.4899C95.9299 48.6499 98.1599 50.6899 98.2099 53.5899C98.2599 56.6299 95.9099 58.7899 92.2199 58.8599C87.3299 58.9499 82.4299 58.8599 77.5399 58.8999C72.1599 58.9499 69.5699 61.5399 69.5799 66.7599C69.5899 71.8999 72.2599 74.5399 77.6099 74.6499C79.6399 74.6899 81.6699 74.6299 83.6999 74.6799C92.2499 74.8899 99.2699 81.1499 100.38 89.5099C101.64 99.0199 96.8199 107.4 88.2699 109.67C85.3799 110.44 84.8199 111.68 84.8999 114.32C85.0299 118.7 83.0499 121.06 79.7699 121.01C76.4799 120.96 74.7499 118.64 74.6799 114.2C74.6599 113.15 74.5799 112.1 74.5099 110.67C72.1199 110.67 69.8799 110.7 67.6499 110.67C63.6999 110.6 61.6499 108.87 61.6099 105.64C61.5699 102.4 63.6399 100.53 67.5099 100.48C72.1599 100.42 76.8199 100.48 81.4799 100.46C87.2799 100.43 90.2399 97.6899 90.2099 92.4499C90.1799 87.3399 87.3299 84.7399 81.6699 84.6999C80.3599 84.6899 79.0399 84.6999 77.7299 84.6999C67.4899 84.6499 60.4899 78.8399 59.3199 69.3999C58.0499 59.1199 63.2999 51.5299 73.4399 48.9699C73.7699 48.8899 74.0899 48.7599 74.5199 48.6199L74.5399 48.5999Z" fill="white"/>
<path d="M138.29 132.28C137.38 132.28 136.46 131.97 135.7 131.35C133.97 129.92 133.72 127.35 135.16 125.62C137.79 122.44 140.15 119.02 142.19 115.45C143.3 113.5 145.78 112.81 147.74 113.93C149.69 115.04 150.38 117.53 149.26 119.48C146.99 123.46 144.36 127.27 141.44 130.81C140.63 131.78 139.47 132.29 138.3 132.29L138.29 132.28Z" fill="white"/>
<path d="M80.08 159.71C36.22 159.71 0.540039 124.03 0.540039 80.1699C0.540039 36.3099 36.22 0.629883 80.08 0.629883C123.94 0.629883 159.62 36.3099 159.62 80.1699C159.62 89.2799 158.09 98.2199 155.07 106.74C154.32 108.86 151.99 109.97 149.87 109.22C147.75 108.47 146.64 106.14 147.39 104.02C150.1 96.3799 151.47 88.3499 151.47 80.1699C151.47 40.7999 119.44 8.76988 80.0701 8.76988C40.7001 8.76988 8.67004 40.7999 8.67004 80.1699C8.67004 119.54 40.7001 151.57 80.0701 151.57C97.0201 151.57 113.46 145.53 126.34 134.55C128.05 133.09 130.62 133.3 132.08 135.01C133.54 136.72 133.33 139.29 131.62 140.75C117.26 152.98 98.9501 159.71 80.0701 159.71H80.08Z" fill="white"/>
<path d="M79.8697 138.38C61.5997 138.38 44.6597 130.11 33.3997 115.7C32.0197 113.93 32.3297 111.37 34.0997 109.99C35.8697 108.61 38.4297 108.92 39.8097 110.69C49.5197 123.11 64.1197 130.24 79.8697 130.24C107.89 130.24 130.68 107.45 130.68 79.43C130.68 51.41 107.89 28.62 79.8697 28.62C51.8497 28.62 29.0597 51.41 29.0597 79.43C29.0597 86.42 30.4497 93.19 33.1997 99.55C34.0897 101.61 33.1397 104.01 31.0797 104.9C29.0197 105.79 26.6197 104.84 25.7297 102.78C22.5397 95.4 20.9297 87.54 20.9297 79.44C20.9297 46.94 47.3697 20.49 79.8797 20.49C112.39 20.49 138.83 46.93 138.83 79.44C138.83 111.95 112.39 138.39 79.8797 138.39L79.8697 138.38Z" fill="white"/>
</g>
<defs>
<clipPath id="clip0_17761_12061">
<rect width="459" height="173" fill="white"/>
</clipPath>
</defs>
</svg>
